<?xml version="1.0" encoding="utf-8"?>
<!-- Generator: Adobe Illustrator 16.0.0, SVG Export Plug-In . SVG Version: 6.00 Build 0)  -->
<!DOCTYPE svg PUBLIC "-//W3C//DTD SVG 1.1//EN" "http://www.w3.org/Graphics/SVG/1.1/DTD/svg11.dtd">
<svg version="1.1" id="Layer_1" xmlns="http://www.w3.org/2000/svg" xmlns:xlink="http://www.w3.org/1999/xlink" x="0px" y="0px"
	 width="170.079px" height="170.079px" viewBox="0 0 170.079 170.079" enable-background="new 0 0 170.079 170.079"
	 xml:space="preserve">
<g>
	<path fill-rule="evenodd" clip-rule="evenodd" fill="#CE2D5F" d="M85.53,13.943L85.53,13.943c38.979,0,70.864,31.887,70.864,70.867
		l0,0c0,38.978-31.886,70.865-70.864,70.865l0,0c-38.978,0-70.868-31.888-70.868-70.865l0,0
		C14.663,45.83,46.553,13.943,85.53,13.943L85.53,13.943z"/>
	<path fill="#FFFFFF" d="M93.919,74.047h2.37c1.191,0,2.155,0.964,2.155,2.154c0,1.188-0.964,2.151-2.155,2.151h-2.37
		c-1,4.908-5.345,8.607-10.539,8.607h-3.417l13.545,13.545c0.84,0.836,0.84,2.204,0,3.04c-0.418,0.426-0.968,0.639-1.521,0.639
		c-0.549,0-1.103-0.213-1.523-0.631l-17.22-17.22c-0.616-0.62-0.801-1.541-0.46-2.346c0.329-0.805,1.116-1.329,1.984-1.329h8.611
		c2.799,0,5.17-1.804,6.06-4.306H74.769c-1.188,0-2.151-0.964-2.151-2.151c0-1.19,0.964-2.154,2.151-2.154h14.671
		c-0.89-2.502-3.261-4.302-6.06-4.302h-8.611c-1.188,0-2.151-0.964-2.151-2.153s0.964-2.153,2.151-2.153h21.521
		c1.191,0,2.155,0.964,2.155,2.153s-0.964,2.153-2.155,2.153h-4.358C92.884,71,93.596,72.445,93.919,74.047L93.919,74.047z"/>
	<path fill="#FFFFFF" d="M106.545,116.806H65.094V52.081h41.451V116.806L106.545,116.806z M101.396,38.264H69.832
		c-5.319,0.03-9.831,4.378-9.831,9.703v73.695c0,5.344,4.447,9.696,9.792,9.696l31.5-0.036c5.348,0,9.721-4.352,9.721-9.695
		l0.046-73.665C111.06,42.617,106.736,38.294,101.396,38.264L101.396,38.264z M85.339,128.473c-2.398,0-4.352-1.956-4.352-4.353
		c0-2.402,1.953-4.352,4.352-4.352c2.399,0,4.353,1.949,4.353,4.352C89.691,126.517,87.738,128.473,85.339,128.473L85.339,128.473z
		 M75.591,44.543c0.538-0.537,1.517-0.546,2.055,0c0.27,0.269,0.433,0.646,0.433,1.033c0,0.379-0.163,0.757-0.433,1.026
		c-0.27,0.271-0.645,0.429-1.023,0.429c-0.387,0-0.755-0.158-1.031-0.429c-0.27-0.269-0.426-0.646-0.426-1.026
		C75.165,45.19,75.321,44.813,75.591,44.543L75.591,44.543z M81.069,44.081h9.125c0.801,0,1.456,0.65,1.456,1.455
		c0,0.804-0.655,1.455-1.456,1.455h-9.125c-0.801,0-1.453-0.65-1.453-1.455C79.616,44.731,80.269,44.081,81.069,44.081
		L81.069,44.081z M69.793,131.358L69.793,131.358L69.793,131.358z"/>
</g>
</svg>
