<?xml version="1.0" encoding="utf-8"?>
<!-- Generator: Adobe Illustrator 16.0.0, SVG Export Plug-In . SVG Version: 6.00 Build 0)  -->
<!DOCTYPE svg PUBLIC "-//W3C//DTD SVG 1.1//EN" "http://www.w3.org/Graphics/SVG/1.1/DTD/svg11.dtd">
<svg version="1.1" id="Layer_1" xmlns="http://www.w3.org/2000/svg" xmlns:xlink="http://www.w3.org/1999/xlink" x="0px" y="0px"
	 width="170.079px" height="170.079px" viewBox="0 0 170.079 170.079" enable-background="new 0 0 170.079 170.079"
	 xml:space="preserve">
<g>
	<path fill-rule="evenodd" clip-rule="evenodd" fill="#CE2D5F" d="M85.527,13.942L85.527,13.942
		c-38.975,0-70.865,31.889-70.865,70.867l0,0c0,38.979,31.89,70.865,70.865,70.865l0,0c38.978,0,70.867-31.887,70.867-70.865l0,0
		C156.395,45.831,124.505,13.942,85.527,13.942L85.527,13.942z"/>
	<path fill="#FFFFFF" d="M52.134,118.195v1.518c0,4.188,3.398,7.591,7.591,7.591h51.608c4.191,0,7.587-3.402,7.587-7.591v-1.518
		H52.134L52.134,118.195z M67.312,121.229h1.517c0.84,0,1.521,0.681,1.521,1.517c0,0.844-0.681,1.517-1.521,1.517h-1.517
		c-0.836,0-1.517-0.673-1.517-1.517C65.795,121.91,66.476,121.229,67.312,121.229L67.312,121.229z M62.762,121.229
		c0.836,0,1.517,0.681,1.517,1.517c0,0.844-0.681,1.517-1.517,1.517c-0.844,0-1.521-0.673-1.521-1.517
		C61.242,121.91,61.918,121.229,62.762,121.229L62.762,121.229z M58.205,121.229c0.84,0,1.521,0.681,1.521,1.517
		c0,0.844-0.681,1.517-1.521,1.517c-0.836,0-1.517-0.673-1.517-1.517C56.688,121.91,57.368,121.229,58.205,121.229L58.205,121.229z"
		/>
	<path fill="#FFFFFF" d="M106.779,75.691h-42.5c-4.192,0-7.591,3.402-7.591,7.591v31.88h57.678v-31.88
		C114.366,79.093,110.968,75.691,106.779,75.691L106.779,75.691z M82.054,101.057l-6.073,6.067
		c-0.284,0.291-0.674,0.453-1.077,0.453c-0.404,0-0.794-0.162-1.078-0.453l-6.073-6.067c-0.596-0.595-0.596-1.559,0-2.154
		c0.595-0.596,1.559-0.596,2.158,0l3.476,3.487V84.798c0-0.836,0.681-1.517,1.518-1.517c0.836,0,1.517,0.681,1.517,1.517v17.592
		l3.477-3.487c0.595-0.596,1.563-0.596,2.157,0C82.646,99.499,82.646,100.462,82.054,101.057L82.054,101.057z M103.303,91.95
		c-0.287,0.284-0.674,0.447-1.077,0.447c-0.404,0-0.794-0.163-1.078-0.447l-3.476-3.494v17.599c0,0.836-0.681,1.517-1.521,1.517
		c-0.837,0-1.517-0.681-1.517-1.517V88.456l-3.477,3.494c-0.596,0.596-1.56,0.596-2.154,0c-0.596-0.595-0.596-1.559,0-2.154
		l6.07-6.074c0.287-0.287,0.673-0.446,1.077-0.446c0.407,0,0.794,0.159,1.081,0.446l6.07,6.074c0.287,0.283,0.45,0.673,0.45,1.077
		S103.59,91.667,103.303,91.95L103.303,91.95z"/>
	<path fill="#FFFFFF" d="M112.85,63.548c-2.995-0.009-5.922,0.879-8.409,2.551c-0.706,0.47-1.655,0.28-2.123-0.425
		c-0.472-0.705-0.28-1.655,0.425-2.126c2.13-1.419,4.544-2.367,7.07-2.777c0-0.076,0-0.168,0-0.258
		c-0.007-8.574-5.996-15.979-14.377-17.785c-8.381-1.808-16.89,2.477-20.427,10.286c2.715,0.286,5.302,1.303,7.484,2.945
		c0.67,0.503,0.805,1.455,0.302,2.126c-0.5,0.67-1.453,0.806-2.123,0.303c-2.098-1.586-4.656-2.44-7.286-2.43h-0.439
		c-3.852,0.142-7.406,2.104-9.582,5.282c1.758,0.514,3.427,1.292,4.951,2.307c0.449,0.305,0.705,0.824,0.666,1.366
		c-0.039,0.542-0.361,1.022-0.851,1.261c-0.485,0.238-1.067,0.197-1.517-0.106c-2.488-1.662-5.418-2.538-8.41-2.521
		c-7.491,0-13.87,5.468-15.004,12.876c-0.103,0.669-0.16,1.333-0.174,1.991v0.635c0.131,6.414,4.327,12.176,10.628,14.161v-9.93
		c0-5.868,4.755-10.624,10.624-10.624h42.5c5.864,0,10.624,4.756,10.624,10.624v9.93c6.297-1.984,10.493-7.747,10.624-14.161v-0.635
		c-0.015-0.659-0.071-1.322-0.17-1.991C126.72,69.016,120.345,63.548,112.85,63.548L112.85,63.548z M100.812,52.621
		c-2.304-2.695-5.667-4.248-9.211-4.251c-0.84,0-1.52-0.68-1.52-1.519c0-0.836,0.68-1.517,1.52-1.517
		c4.43,0,8.637,1.935,11.518,5.296c0.263,0.306,0.394,0.705,0.361,1.105c-0.031,0.402-0.22,0.774-0.527,1.035
		c-0.273,0.241-0.621,0.375-0.985,0.379C101.523,53.151,101.102,52.958,100.812,52.621L100.812,52.621z"/>
</g>
</svg>
