<?xml version="1.0" encoding="utf-8"?>
<!-- Generator: Adobe Illustrator 16.0.0, SVG Export Plug-In . SVG Version: 6.00 Build 0)  -->
<!DOCTYPE svg PUBLIC "-//W3C//DTD SVG 1.1//EN" "http://www.w3.org/Graphics/SVG/1.1/DTD/svg11.dtd">
<svg version="1.1" id="Layer_1" xmlns="http://www.w3.org/2000/svg" xmlns:xlink="http://www.w3.org/1999/xlink" x="0px" y="0px"
	 width="170.079px" height="170.079px" viewBox="0 0 170.079 170.079" enable-background="new 0 0 170.079 170.079"
	 xml:space="preserve">
<g>
	<path fill-rule="evenodd" clip-rule="evenodd" fill="#CE2D5F" d="M85.53,13.943L85.53,13.943c38.979,0,70.864,31.889,70.864,70.867
		l0,0c0,38.978-31.886,70.865-70.864,70.865l0,0c-38.978,0-70.868-31.888-70.868-70.865l0,0
		C14.663,45.832,46.553,13.943,85.53,13.943L85.53,13.943z"/>
	<path fill="#FFFFFF" d="M123.813,114.928c-3.544,0-6.534,2.282-7.665,5.443H93.192c-0.822-2.304-2.637-4.118-4.94-4.94v-6.308
		h-5.446v6.308c-2.304,0.822-4.118,2.637-4.94,4.94H54.909c-1.127-3.161-4.118-5.443-7.662-5.443c-4.504,0-8.165,3.664-8.165,8.165
		s3.661,8.165,8.165,8.165c3.543,0,6.535-2.282,7.662-5.443h22.956c1.127,3.161,4.118,5.443,7.665,5.443
		c3.544,0,6.535-2.282,7.662-5.443h22.956c1.131,3.161,4.121,5.443,7.665,5.443c4.501,0,8.165-3.664,8.165-8.165
		S128.314,114.928,123.813,114.928L123.813,114.928z"/>
	<polygon fill="#FFFFFF" points="82.806,103.68 88.252,103.68 88.252,87.351 82.806,87.351 82.806,103.68 	"/>
	<path fill="#FFFFFF" d="M52.868,76.464h8.168v24.495c0,1.503,1.216,2.722,2.718,2.722h13.612V84.629
		c0-1.503,1.215-2.722,2.718-2.722h10.89c1.503,0,2.722,1.219,2.722,2.722v19.051h13.608c1.502,0,2.722-1.219,2.722-2.722V76.464
		h8.164c1.099,0,2.095-0.663,2.513-1.68c0.422-1.021,0.191-2.19-0.588-2.966l-32.659-32.66c-0.532-0.532-1.227-0.796-1.921-0.799
		h-0.007c-0.698,0.003-1.39,0.268-1.921,0.799l-32.659,32.66c-0.78,0.776-1.014,1.945-0.588,2.966
		C50.777,75.801,51.77,76.464,52.868,76.464L52.868,76.464z"/>
</g>
</svg>
