<?xml version="1.0" encoding="utf-8"?>
<!-- Generator: Adobe Illustrator 16.0.0, SVG Export Plug-In . SVG Version: 6.00 Build 0)  -->
<!DOCTYPE svg PUBLIC "-//W3C//DTD SVG 1.1//EN" "http://www.w3.org/Graphics/SVG/1.1/DTD/svg11.dtd">
<svg version="1.1" id="Layer_1" xmlns="http://www.w3.org/2000/svg" xmlns:xlink="http://www.w3.org/1999/xlink" x="0px" y="0px"
	 width="170.079px" height="170.079px" viewBox="0 0 170.079 170.079" enable-background="new 0 0 170.079 170.079"
	 xml:space="preserve">
<g>
	<path fill-rule="evenodd" clip-rule="evenodd" fill="#112c75" d="M84.995,14.563L84.995,14.563
		c38.978,0,70.869,31.887,70.869,70.866l0,0c0,38.974-31.892,70.866-70.869,70.866l0,0c-38.977,0-70.863-31.893-70.863-70.866l0,0
		C14.132,46.451,46.018,14.563,84.995,14.563L84.995,14.563z"/>
	<path fill="#FFFFFF" d="M84.538,84.103c4.792,0,8.938-1.718,12.328-5.106c3.389-3.39,5.107-7.537,5.107-12.329
		c0-4.789-1.719-8.936-5.107-12.327c-3.391-3.39-7.54-5.106-12.328-5.106c-4.79,0-8.938,1.717-12.327,5.106
		c-3.39,3.39-5.107,7.538-5.107,12.327c0,4.792,1.718,8.938,5.107,12.329C75.602,82.384,79.749,84.103,84.538,84.103L84.538,84.103z
		 M115.048,104.899c-0.1-1.411-0.299-2.955-0.589-4.579c-0.295-1.637-0.67-3.182-1.124-4.6c-0.468-1.459-1.105-2.904-1.892-4.286
		c-0.815-1.433-1.776-2.687-2.85-3.714c-1.127-1.077-2.502-1.942-4.098-2.573c-1.587-0.628-3.344-0.946-5.226-0.946
		c-0.738,0-1.453,0.303-2.835,1.202c-0.848,0.554-1.844,1.195-2.953,1.905c-0.946,0.602-2.232,1.17-3.818,1.68
		c-1.547,0.504-3.119,0.758-4.67,0.758s-3.122-0.254-4.673-0.758c-1.586-0.51-2.87-1.078-3.816-1.68
		c-1.099-0.702-2.092-1.345-2.956-1.907c-1.378-0.897-2.092-1.2-2.83-1.2c-1.885,0-3.641,0.318-5.228,0.946
		c-1.593,0.63-2.97,1.496-4.097,2.573c-1.075,1.027-2.034,2.281-2.851,3.714c-0.785,1.382-1.421,2.827-1.888,4.294
		c-0.453,1.41-0.832,2.955-1.126,4.592c-0.29,1.624-0.486,3.161-0.585,4.579c-0.096,1.382-0.145,2.82-0.145,4.273
		c0,3.776,1.201,6.84,3.569,9.093c2.34,2.226,5.435,3.353,9.2,3.353h34.856c3.762,0,6.855-1.127,9.194-3.353
		c2.37-2.253,3.572-5.316,3.572-9.093C115.191,107.712,115.142,106.274,115.048,104.899L115.048,104.899z"/>
</g>
</svg>
